<?xml version="1.0" encoding="utf-8"?>
<!-- Generator: Adobe Illustrator 27.0.0, SVG Export Plug-In . SVG Version: 6.00 Build 0)  -->
<svg version="1.1" id="圖層_1" xmlns="http://www.w3.org/2000/svg" xmlns:xlink="http://www.w3.org/1999/xlink" x="0px" y="0px"
	 viewBox="0 0 243 246" style="enable-background:new 0 0 243 246;" xml:space="preserve">
<style type="text/css">
	.st0{fill:#E1E7E3;}
	.st1{fill:#E1E7E3;stroke:#415F61;stroke-width:5;stroke-miterlimit:10;}
</style>
<g>
	<g>
		<g>
			<path class="st0" d="M230.25,78.96c-5.86-14.45-14.47-27.41-25.58-38.52c-9.26-9.26-19.88-16.83-31.57-22.49
				c-11.3-5.47-23.36-9.06-35.86-10.67c-12.37-1.59-24.84-1.2-37.07,1.16c-10.69,2.06-20.97,5.59-30.62,10.5L61.42,7.8l-16.6,37.47
				l40.75-4.36l-7.84-10.75c38.97-18.77,86.29-11,117.25,19.95c35.76,35.76,39.6,91.54,11.52,131.6l11.23,7.87
				c5.02-7.15,9.2-14.83,12.51-22.99c5.66-13.95,8.53-28.7,8.53-43.82S235.9,92.91,230.25,78.96z"/>
			<path class="st0" d="M166.91,215.38c-38.97,18.77-86.29,11.01-117.25-19.95c-35.76-35.76-39.6-91.54-11.52-131.6l-11.23-7.87
				c-5.02,7.15-9.2,14.83-12.51,22.99c-5.66,13.96-8.53,28.7-8.53,43.82s2.87,29.86,8.53,43.82c5.86,14.45,14.47,27.41,25.58,38.52
				c9.26,9.26,19.88,16.83,31.57,22.49c11.3,5.47,23.36,9.06,35.86,10.67c4.97,0.64,9.95,0.96,14.93,0.96
				c7.42,0,14.82-0.71,22.14-2.12c10.69-2.06,20.97-5.59,30.62-10.5c0,0,0,0,0,0l8.12,11.14l16.6-37.47l-40.75,4.36L166.91,215.38z"
				/>
		</g>
		<g>
			<g>
				<path class="st1" d="M71.7,114.27c-17.51,0.01-31.61,14.42-31.61,31.93v20.78c0,5.82,4.72,10.54,10.54,10.54H92.8
					c5.82,0,10.54-4.72,10.54-10.54V145.9C103.34,128.43,89.17,114.26,71.7,114.27z"/>
				<circle class="st1" cx="71.61" cy="99.62" r="21.09"/>
			</g>
			<g>
				<path class="st1" d="M172.95,114.27c17.51,0.01,31.61,14.42,31.61,31.93v20.78c0,5.82-4.72,10.54-10.54,10.54h-42.17
					c-5.82,0-10.54-4.72-10.54-10.54V145.9C141.3,128.43,155.47,114.26,172.95,114.27z"/>
				<circle class="st1" cx="173.04" cy="99.62" r="21.09"/>
			</g>
			<g>
				<path class="st1" d="M122.44,104.43c-23.35,0.01-42.15,19.23-42.15,42.58v27.71c0,7.76,6.29,14.06,14.06,14.06h56.23
					c7.76,0,14.06-6.29,14.06-14.06V146.6C164.64,123.31,145.74,104.42,122.44,104.43z"/>
				
					<ellipse transform="matrix(0.1682 -0.9857 0.9857 0.1682 18.0616 191.1869)" class="st1" cx="122.32" cy="84.89" rx="28.12" ry="28.12"/>
			</g>
		</g>
	</g>
</g>
</svg>
